<svg width="250" height="46" viewBox="0 0 250 46" fill="none" xmlns="http://www.w3.org/2000/svg">
<g filter="url(#filter0_d_35_7098)">
<path d="M98.5257 32.5282H94.8926V30.6588H104.038V32.5282H100.405V41.7507H98.4004V32.5282H98.5257ZM113.058 41.7507H106.418V30.6588H112.808V32.5282H108.298V35.27H112.307V37.1395H108.298V40.0059H112.933V41.7507H113.058ZM122.705 30.6588H124.96L121.202 36.0178L125.085 41.6261H122.83L119.949 37.5134L117.067 41.6261H114.812L118.696 36.0178L114.938 30.6588H117.193L119.949 34.6469L122.705 30.6588ZM136.486 41.7507H134.481V37.0148H129.47V41.7507H127.466V30.6588H129.47V35.1454H134.607V30.6588H136.486V41.7507ZM139.367 36.2671C139.367 34.6469 139.869 33.276 140.996 32.1543C142.124 31.0326 143.502 30.5341 145.13 30.5341C146.759 30.5341 148.137 31.0326 149.265 32.1543C150.392 33.276 150.893 34.6469 150.893 36.2671C150.893 37.8872 150.392 39.2582 149.265 40.3798C148.137 41.5015 146.759 42 145.13 42C143.502 42 142.124 41.5015 140.996 40.3798C139.869 39.2582 139.367 37.8872 139.367 36.2671ZM141.372 36.2671C141.372 37.3887 141.748 38.2611 142.374 39.0089C143.001 39.7567 144.003 40.1306 145.005 40.1306C146.133 40.1306 147.01 39.7567 147.761 39.0089C148.388 38.2611 148.764 37.3887 148.764 36.2671C148.764 35.1454 148.388 34.1484 147.636 33.5252C146.884 32.7774 146.007 32.4036 145.005 32.4036C143.878 32.4036 143.001 32.7774 142.374 33.5252C141.748 34.1484 141.372 35.1454 141.372 36.2671ZM161.918 41.7507H160.039V32.5282H156.782L156.531 34.6469C156.406 35.8932 156.28 37.0148 156.03 37.8872C155.779 38.7596 155.654 39.5074 155.403 40.0059C155.153 40.5045 154.902 41.003 154.526 41.2522C154.151 41.5015 153.9 41.7507 153.524 41.7507C153.148 41.8754 152.773 41.8754 152.271 41.7507V39.8813C152.522 39.8813 152.647 39.8813 152.898 39.8813C153.023 39.8813 153.274 39.632 153.399 39.3828C153.65 39.1335 153.775 38.7596 153.9 38.2611C154.276 37.1395 154.526 35.3947 154.777 32.9021L154.902 30.6588H161.918V41.7507ZM164.8 36.2671C164.8 34.6469 165.301 33.276 166.428 32.1543C167.556 31.0326 168.934 30.5341 170.563 30.5341C172.191 30.5341 173.569 31.0326 174.697 32.1543C175.824 33.276 176.325 34.6469 176.325 36.2671C176.325 37.8872 175.824 39.2582 174.697 40.3798C173.569 41.5015 172.191 42 170.563 42C168.934 42 167.556 41.5015 166.428 40.3798C165.301 39.2582 164.8 37.8872 164.8 36.2671ZM166.929 36.2671C166.929 37.3887 167.305 38.2611 167.932 39.0089C168.558 39.7567 169.56 40.1306 170.563 40.1306C171.69 40.1306 172.567 39.7567 173.319 39.0089C173.945 38.2611 174.321 37.3887 174.321 36.2671C174.321 35.1454 173.945 34.1484 173.193 33.5252C172.442 32.7774 171.565 32.4036 170.563 32.4036C169.435 32.4036 168.558 32.7774 167.932 33.5252C167.18 34.1484 166.929 35.1454 166.929 36.2671ZM181.211 41.7507H179.207V30.6588H185.471V32.5282H181.211V41.7507ZM190.106 41.7507H188.102V30.6588H190.106V41.7507ZM192.988 28.7893C192.988 28.5401 193.113 28.2908 193.238 28.0415C193.489 27.9169 193.74 27.7923 193.99 27.7923C194.241 27.7923 194.491 27.9169 194.742 28.0415C194.992 28.1662 194.992 28.4154 194.992 28.7893C194.992 29.1632 194.867 29.4125 194.742 29.5371C194.617 29.6617 194.366 29.7863 193.99 29.7863C193.74 29.7863 193.489 29.6617 193.238 29.5371C193.113 29.2878 192.988 29.0386 192.988 28.7893ZM196.245 41.7507H194.241V30.6588H196.245V41.7507ZM195.619 28.7893C195.619 28.5401 195.744 28.2908 195.869 28.0415C196.12 27.9169 196.37 27.7923 196.621 27.7923C196.872 27.7923 197.122 27.9169 197.373 28.0415C197.623 28.2908 197.623 28.4154 197.623 28.7893C197.623 29.1632 197.498 29.4125 197.373 29.5371C197.247 29.7863 196.997 29.7863 196.621 29.7863C196.245 29.7863 195.995 29.6617 195.869 29.5371C195.744 29.2878 195.619 29.0386 195.619 28.7893ZM211.905 39.2582L212.657 40.7537C212.281 41.1276 211.78 41.3769 211.154 41.6261C210.527 41.8754 209.776 42 209.149 42C207.395 42 206.017 41.5015 205.015 40.3798C204.013 39.3828 203.386 38.0119 203.386 36.2671C203.386 34.6469 203.887 33.276 204.89 32.1543C205.892 31.0326 207.27 30.5341 209.024 30.5341C210.402 30.5341 211.53 30.908 212.406 31.6558L211.53 33.1513C210.778 32.6528 209.901 32.4036 209.024 32.4036C208.022 32.4036 207.145 32.7774 206.393 33.4006C205.767 34.1484 205.391 35.0208 205.391 36.2671C205.391 37.3887 205.767 38.3858 206.393 39.1335C207.145 39.8813 208.022 40.2552 209.149 40.2552C210.277 40.1306 211.154 39.8813 211.905 39.2582ZM224.183 41.7507H222.304V37.0148H217.167V41.7507H215.163V30.6588H217.167V35.1454H222.304V30.6588H224.183V41.7507ZM235.082 30.6588H237.087L233.328 39.1335C232.953 40.0059 232.451 40.6291 232.076 41.1276C231.575 41.5015 231.073 41.7507 230.322 41.7507C229.57 41.7507 229.194 41.6261 228.818 41.2522L229.445 39.632C229.695 39.7567 229.946 39.8813 230.322 39.8813C230.823 39.8813 231.199 39.632 231.449 39.1335L231.575 38.7596L226.689 30.6588H228.944L232.577 36.8902L235.082 30.6588Z" fill="#535353"/>
<path d="M92.6439 11.7151L103.418 24.8012H96.5276L87.8832 13.9585V24.8012H82.4961V0.249263H87.8832V10.2196L96.1518 0.249263H102.792L92.6439 11.7151ZM202.516 5.35906H210.032V24.8012H215.42V5.35906H222.936V0.249263H202.39V5.35906H202.516ZM118.953 14.9555L126.595 24.8012H120.08L113.691 16.0772H111.687V24.8012H106.3V0.249263H106.926C108.053 0.249263 109.306 0.249263 110.684 0.249263C112.062 0.249263 113.19 0.249263 114.067 0.249263C121.584 0.249263 123.213 4.48665 123.213 8.1009C123.213 9.97033 122.711 11.5905 121.709 12.8368C120.832 13.7092 119.955 14.457 118.953 14.9555ZM112.313 5.35906C112.062 5.35906 111.937 5.35906 111.687 5.35906V10.9674H113.691C114.819 10.9674 115.821 10.7181 116.573 10.095C117.199 9.59645 117.575 8.84867 117.575 7.97627C117.575 6.72998 117.199 5.23443 113.816 5.23443C113.691 5.23443 113.566 5.23443 113.315 5.23443C113.065 5.35906 112.689 5.35906 112.313 5.35906ZM193.871 0.249263L204.27 24.8012H198.507L196.126 18.819H186.981L184.6 24.8012H179.088L189.361 0.249263H193.871ZM191.491 7.72701L188.985 13.7092H193.996L191.491 7.72701ZM249.496 12.5875C249.496 16.2018 248.243 19.3175 245.863 21.6855C243.483 24.0534 240.351 25.2997 236.717 25.2997C233.084 25.2997 229.952 24.178 227.572 21.8101C225.192 19.4421 223.939 16.451 223.939 12.7122C223.939 9.22256 225.192 6.10683 227.572 3.73888C229.952 1.37092 233.084 0.124634 236.717 0.124634C240.351 0.124634 243.483 1.2463 245.863 3.61425C248.243 5.73294 249.496 8.84867 249.496 12.5875ZM241.979 17.9466C243.357 16.451 243.984 14.7062 243.984 12.4629C243.984 10.2196 243.357 8.47478 241.854 6.97923C240.476 5.60831 238.722 4.86054 236.717 4.86054C234.588 4.86054 232.959 5.60831 231.581 6.97923C230.203 8.35015 229.576 10.2196 229.576 12.4629C229.576 14.7062 230.203 16.451 231.581 17.822C232.959 19.3175 234.588 19.9407 236.717 19.9407C238.972 20.0653 240.601 19.4421 241.979 17.9466ZM176.081 0.249263L169.817 16.451L163.303 0.249263H157.54L167.687 24.8012H171.696L181.594 0.249263H176.081Z" fill="#535353"/>
<path d="M153.101 2.49432C151.594 0.997728 149.584 0.124716 147.449 0.124716C145.314 0.124716 143.305 0.997728 141.798 2.49432L141.421 2.86847L140.918 2.3696C139.411 0.873012 137.402 0 135.267 0C133.131 0 131.122 0.873012 129.615 2.3696C128.108 3.8662 127.229 5.86165 127.229 7.98182C127.229 10.102 128.108 12.0975 129.615 13.594L140.542 24.4443C140.793 24.6938 141.044 24.8185 141.421 24.8185C141.798 24.8185 142.049 24.6938 142.3 24.4443L153.227 13.594C154.734 12.0975 155.613 10.102 155.613 7.98182C155.613 5.86165 154.734 3.99091 153.101 2.49432Z" fill="#00B5FF"/>
<mask id="mask0_35_7098" style="mask-type:alpha" maskUnits="userSpaceOnUse" x="127" y="0" width="29" height="25">
<path d="M153.101 2.49432C151.594 0.997728 149.584 0.124716 147.449 0.124716C145.314 0.124716 143.305 0.997728 141.798 2.49432L141.421 2.86847L140.918 2.3696C139.411 0.873012 137.402 0 135.267 0C133.131 0 131.122 0.873012 129.615 2.3696C128.108 3.8662 127.229 5.86165 127.229 7.98182C127.229 10.102 128.108 12.0975 129.615 13.594L140.542 24.4443C140.793 24.6938 141.044 24.8185 141.421 24.8185C141.798 24.8185 142.049 24.6938 142.3 24.4443L153.227 13.594C154.734 12.0975 155.613 10.102 155.613 7.98182C155.613 5.86165 154.734 3.99091 153.101 2.49432Z" fill="#00B5FF"/>
</mask>
<g mask="url(#mask0_35_7098)">
<rect x="126.293" y="10.3227" width="30.0675" height="15.0844" fill="#FFBC00"/>
</g>
<path d="M7.23477 14.4V40.8C7.23477 41.52 6.75246 42 6.02898 42H1.2058C0.482318 42 0 41.52 0 40.8V14.4C0 13.68 0.482318 13.2 1.2058 13.2H6.02898C6.75246 13.2 7.23477 13.8 7.23477 14.4ZM72.7942 13.2H67.971C67.2476 13.2 66.7652 13.68 66.7652 14.4V40.8C66.7652 41.52 67.2476 42 67.971 42H72.7942C73.5177 42 74 41.52 74 40.8V14.4C74 13.8 73.5177 13.2 72.7942 13.2Z" fill="#FFBC57"/>
<path d="M64.3538 21.6V28.8C64.3538 29.52 63.8714 30 63.148 30H10.8523C10.1288 30 9.64648 29.52 9.64648 28.8V21.6C9.64648 20.88 10.1288 20.4 10.8523 20.4H63.148C63.8714 20.4 64.3538 20.88 64.3538 21.6ZM10.8523 18H25.0687C25.7922 18 26.2745 17.52 26.2745 16.8V1.2C26.2745 0.48 25.7922 0 25.0687 0H10.8523C10.1288 0 9.64648 0.48 9.64648 1.2V16.8C9.64648 17.52 10.1288 18 10.8523 18ZM29.8919 18H44.1083C44.8318 18 45.3141 17.52 45.3141 16.8V1.2C45.3141 0.48 44.8318 0 44.1083 0H29.8919C29.1684 0 28.6861 0.48 28.6861 1.2V16.8C28.6861 17.52 29.1684 18 29.8919 18ZM63.148 0H48.9315C48.208 0 47.7257 0.48 47.7257 1.2V16.8C47.7257 17.52 48.208 18 48.9315 18H63.148C63.8714 18 64.3538 17.52 64.3538 16.8V1.2C64.3538 0.48 63.8714 0 63.148 0ZM63.148 32.4H10.8523C10.1288 32.4 9.64648 32.88 9.64648 33.6V40.8C9.64648 41.52 10.1288 42 10.8523 42H17.8339C18.5574 42 19.0397 41.52 19.0397 40.8V39.6H54.9605V40.8C54.9605 41.52 55.4428 42 56.1663 42H63.148C63.8714 42 64.3538 41.52 64.3538 40.8V33.6C64.3538 32.88 63.8714 32.4 63.148 32.4Z" fill="#FFBC57"/>
</g>
<defs>
<filter id="filter0_d_35_7098" x="-4" y="0" width="257.496" height="50" filterUnits="userSpaceOnUse" color-interpolation-filters="sRGB">
<feFlood flood-opacity="0" result="BackgroundImageFix"/>
<feColorMatrix in="SourceAlpha" type="matrix" values="0 0 0 0 0 0 0 0 0 0 0 0 0 0 0 0 0 0 127 0" result="hardAlpha"/>
<feOffset dy="4"/>
<feGaussianBlur stdDeviation="2"/>
<feComposite in2="hardAlpha" operator="out"/>
<feColorMatrix type="matrix" values="0 0 0 0 0 0 0 0 0 0 0 0 0 0 0 0 0 0 0.25 0"/>
<feBlend mode="normal" in2="BackgroundImageFix" result="effect1_dropShadow_35_7098"/>
<feBlend mode="normal" in="SourceGraphic" in2="effect1_dropShadow_35_7098" result="shape"/>
</filter>
</defs>
</svg>
